<?xml version="1.0" encoding="UTF-8"?>
<svg version="1.1" xmlns="http://www.w3.org/2000/svg" width="1024" height="339">
<path d="M0 0 C337.92 0 675.84 0 1024 0 C1024 111.87 1024 223.74 1024 339 C686.08 339 348.16 339 0 339 C0 227.13 0 115.26 0 0 Z " fill="#FEFEFE" transform="translate(0,0)"/>
<path d="M0 0 C1.25858826 -0.00861557 2.51717651 -0.01723114 3.81390381 -0.02610779 C7.22938758 -0.04838607 10.64440329 -0.04571349 14.05993152 -0.03678632 C16.92740822 -0.03163327 19.79480025 -0.03900361 22.66226822 -0.04625839 C29.43459054 -0.0631889 36.20668716 -0.05976119 42.97900391 -0.04296875 C49.93086753 -0.02605239 56.88210294 -0.04189032 63.83389801 -0.07419163 C69.83603876 -0.10100835 75.83798541 -0.10813124 81.84017998 -0.09967655 C85.41033864 -0.0947825 88.98011982 -0.09676903 92.55023003 -0.11746407 C96.53648104 -0.13947086 100.52156475 -0.12028729 104.5078125 -0.09765625 C106.24684593 -0.11519455 106.24684593 -0.11519455 108.02101135 -0.13308716 C120.02141608 0.00461234 131.25527006 3.90091516 139.81860352 12.53344727 C147.46182351 21.85649583 149.26793174 30.46288437 149.23852539 42.26074219 C149.24699493 43.51874634 149.25546448 44.77675049 149.26419067 46.07287598 C149.28629964 49.50504363 149.28934252 52.93697044 149.28744316 56.36919951 C149.2873229 59.24640701 149.29591018 62.12356452 149.30422068 65.00075799 C149.32341883 71.79790297 149.32635267 78.59492519 149.31958008 85.39208984 C149.31295104 92.37338812 149.3357655 99.35415647 149.37289381 106.33534735 C149.40372797 112.35437634 149.41493582 118.37323614 149.411057 124.39234239 C149.40900253 127.97599509 149.4142633 131.55923575 149.43894958 135.14281273 C149.46563489 139.14861689 149.45138536 143.15332481 149.43383789 147.15917969 C149.44710114 148.32481949 149.46036438 149.49045929 149.47402954 150.69142151 C149.35275276 162.68583718 145.72352066 172.77829444 137.29125977 181.43579102 C130.38349004 187.29593689 123.07407865 189.64687672 114.11480713 189.67388916 C112.9766153 189.6795993 111.83842346 189.68530945 110.66574097 189.69119263 C109.42615631 189.69231049 108.18657166 189.69342834 106.90942383 189.69458008 C105.59666473 189.69954498 104.28390564 189.70450989 102.93136597 189.70962524 C99.33613158 189.72271275 95.74091583 189.72918712 92.14566135 189.7336359 C89.89640874 189.73657268 87.64716115 189.74067864 85.39791107 189.74514008 C78.35155679 189.75880574 71.30521408 189.7684768 64.25884748 189.77234197 C56.14154154 189.77681981 48.02440423 189.79435879 39.90714955 189.82334256 C33.6216063 189.8450022 27.33611035 189.85504854 21.0505302 189.85638309 C17.30161847 189.8574281 13.55286546 189.86327088 9.80399323 189.8812027 C5.61767952 189.90083827 1.4317161 189.8963774 -2.75463867 189.88989258 C-3.9861264 189.89910736 -5.21761414 189.90832214 -6.48641968 189.91781616 C-18.06223875 189.86173167 -27.55500179 187.11566599 -35.93920898 178.78735352 C-43.48530679 169.66757199 -44.77774177 158.64740446 -44.69897461 147.21264648 C-44.70598389 145.93948578 -44.71299316 144.66632507 -44.72021484 143.35458374 C-44.73826434 139.90002865 -44.73145909 136.44595773 -44.7186985 132.99139547 C-44.70847869 129.35526442 -44.71798843 125.71917124 -44.72424316 122.08303833 C-44.73149186 115.9822861 -44.72200345 109.88172846 -44.70288086 103.78100586 C-44.68109773 96.75076732 -44.68818485 89.72099266 -44.71018648 82.69076526 C-44.72839685 76.62668284 -44.73087201 70.56273922 -44.7204318 64.49863827 C-44.71423017 60.88895709 -44.71326882 57.27949329 -44.72657776 53.66982651 C-44.74038574 49.64476222 -44.72119522 45.62048566 -44.69897461 41.59545898 C-44.70707153 40.4159668 -44.71516846 39.23647461 -44.72351074 38.02124023 C-44.61911663 27.77486485 -42.23991533 19.85009705 -35.08374023 12.34594727 C-24.85457524 2.59988452 -13.95847453 -0.0784337 0 0 Z " fill="#5663FE" transform="translate(133.181396484375,75.466552734375)"/>
<path d="M0 0 C0.92783798 -0.00945648 1.85567596 -0.01891296 2.81163025 -0.02865601 C4.31168358 -0.01954697 4.31168358 -0.01954697 5.84204102 -0.01025391 C7.38626488 -0.01455917 7.38626488 -0.01455917 8.96168518 -0.01895142 C11.1396642 -0.02099359 13.3176615 -0.01545307 15.49560547 -0.00292969 C18.82960076 0.01310498 22.16238069 -0.00276528 25.49633789 -0.02197266 C27.61157494 -0.01998993 29.72681124 -0.01614565 31.84204102 -0.01025391 C33.339058 -0.01936295 33.339058 -0.01936295 34.86631775 -0.02865601 C35.79730789 -0.01919952 36.72829803 -0.00974304 37.6875 0 C38.91302834 0.00358017 38.91302834 0.00358017 40.16331482 0.00723267 C42.99809486 0.48823417 44.36559962 1.38028829 46.40844727 3.38818359 C46.83415663 6.30246502 47.013304 8.85556463 47.01782227 11.77490234 C47.03435852 12.59191116 47.05089478 13.40891998 47.06793213 14.25068665 C47.11650067 16.85909473 47.13780185 19.46691953 47.15844727 22.07568359 C47.18659967 23.84459329 47.21652608 25.61347571 47.24829102 27.38232422 C47.32226155 31.71756266 47.37178166 36.05247562 47.40844727 40.38818359 C48.62951172 40.3975293 49.85057617 40.406875 51.10864258 40.41650391 C55.64140226 40.45639282 60.17348242 40.52214853 64.70581055 40.59570312 C66.66698473 40.62391913 68.62827277 40.64513054 70.58959961 40.65917969 C73.41001703 40.68060058 76.22906469 40.72724568 79.04907227 40.77880859 C80.36334198 40.78065155 80.36334198 40.78065155 81.7041626 40.78253174 C85.29901949 40.86891984 87.76964197 41.04359146 90.96240234 42.76586914 C93.29835294 47.00197337 92.95808812 51.19753818 92.90454102 55.95458984 C92.90599625 56.98502914 92.90745148 58.01546844 92.90895081 59.07713318 C92.90729211 61.25335521 92.89573417 63.429589 92.875 65.60571289 C92.84602346 68.94191114 92.85439645 72.27652282 92.86743164 75.61279297 C92.86119494 77.726733 92.85280454 79.84066801 92.84204102 81.95458984 C92.84497665 82.9546254 92.84791229 83.95466095 92.85093689 84.98500061 C92.83825272 85.91283859 92.82556854 86.84067657 92.8125 87.79663086 C92.80709702 88.61285416 92.80169403 89.42907745 92.79612732 90.27003479 C92.30736398 92.94046749 91.60679339 93.81877503 89.40844727 95.38818359 C87.45320129 95.78691101 87.45320129 95.78691101 85.21240234 95.82055664 C84.37175735 95.8403508 83.53111237 95.86014496 82.66499329 95.88053894 C81.76177841 95.88692886 80.85856354 95.89331879 79.92797852 95.89990234 C78.99998947 95.91785355 78.07200043 95.93580475 77.1158905 95.95429993 C74.1509557 96.0084965 71.18618271 96.04232859 68.22094727 96.07568359 C66.21115907 96.10884842 64.20139226 96.14333729 62.19165039 96.17919922 C57.26403262 96.26422838 52.33646362 96.33099497 47.40844727 96.38818359 C47.40702225 96.94306458 47.40559723 97.49794556 47.40412903 98.06964111 C47.38444212 103.84510732 47.33019127 109.61951517 47.25585938 115.39453125 C47.23266255 117.54972745 47.21827973 119.70503727 47.21289062 121.86035156 C47.20361356 124.95889232 47.16264939 128.05564167 47.11547852 131.15380859 C47.11941116 132.11748352 47.12334381 133.08115845 47.12739563 134.07403564 C46.98384172 140.65595096 46.98384172 140.65595096 44.3671875 143.98583984 C40.66399476 145.74102914 37.38717406 146.03562617 33.36157227 146.06005859 C32.20561554 146.08002899 32.20561554 146.08002899 31.02630615 146.10040283 C29.39922583 146.12059585 27.77198088 146.13003871 26.14477539 146.12939453 C23.67774049 146.13811539 21.21795888 146.21067564 18.75219727 146.28662109 C5.55494369 146.47660365 5.55494369 146.47660365 0.18969727 141.66943359 C-1.09066714 140.26021962 -2.35306065 138.83433517 -3.59155273 137.38818359 C-4.7255248 136.43270135 -5.88566409 135.50692924 -7.07592773 134.62255859 C-7.61217773 134.21344238 -8.14842773 133.80432617 -8.70092773 133.3828125 C-9.24233398 132.97208496 -9.78374023 132.56135742 -10.34155273 132.13818359 C-16.42778943 127.4450411 -22.07552983 122.39565099 -27.65405273 117.11474609 C-29.63103309 115.24867998 -31.65659543 113.4820428 -33.75952148 111.75927734 C-44.84006275 102.48218969 -57.57633618 87.04231269 -59.59155273 72.38818359 C-60.19806669 61.86749913 -60.15621915 54.64859957 -53.40405273 46.20068359 C-47.94351767 40.35416476 -43.24849683 38.19334301 -35.21655273 37.82568359 C-26.07275624 38.15262441 -20.24866115 41.93071243 -13.29077148 47.57568359 C-12.40607178 48.29111328 -11.52137207 49.00654297 -10.60986328 49.74365234 C-9.9438208 50.28634766 -9.27777832 50.82904297 -8.59155273 51.38818359 C-8.58568649 50.79349777 -8.57982025 50.19881195 -8.57377625 49.58610535 C-8.50992151 43.40547605 -8.4255228 37.2253713 -8.32910156 31.04516602 C-8.29581417 28.73761911 -8.26779424 26.42999002 -8.24511719 24.12231445 C-8.21164166 20.80823697 -8.15932875 17.49491514 -8.10327148 14.18115234 C-8.09688156 13.14669479 -8.09049164 12.11223724 -8.08390808 11.0464325 C-8.06411392 10.08566299 -8.04431976 9.12489349 -8.02392578 8.13500977 C-8.01282272 7.28895676 -8.00171967 6.44290375 -7.99028015 5.57121277 C-7.13197971 0.87202522 -4.42209019 0.01293097 0 0 Z " fill="#FCFCFE" transform="translate(167.591552734375,98.61181640625)"/>
<path d="M0 0 C1.5631897 0.00785522 1.5631897 0.00785522 3.15795898 0.01586914 C4.28266602 0.0190918 5.40737305 0.02231445 6.56616211 0.02563477 C7.75016602 0.03401367 8.93416992 0.04239258 10.15405273 0.05102539 C11.34192383 0.05553711 12.52979492 0.06004883 13.75366211 0.06469727 C16.69967741 0.07652865 19.6455824 0.09385016 22.59155273 0.11352539 C26.10500619 6.79572098 29.00743732 13.49862113 31.50952148 20.61743164 C31.85284012 21.58075912 32.19615875 22.54408661 32.54988098 23.53660583 C33.26797866 25.55650173 33.98292585 27.57752025 34.69482422 29.59960938 C35.77852144 32.67451789 36.87472686 35.74475824 37.97241211 38.81469727 C38.67303119 40.79034317 39.37292575 42.76624618 40.07202148 44.74243164 C40.39599411 45.6489296 40.71996674 46.55542755 41.05375671 47.48939514 C42.97892962 52.98535712 44.43545796 58.40469685 45.59155273 64.11352539 C46.25155273 64.11352539 46.91155273 64.11352539 47.59155273 64.11352539 C47.97766724 62.2068811 47.97766724 62.2068811 48.37158203 60.26171875 C49.55819627 54.9367914 51.27693623 49.87450471 53.11108398 44.74243164 C53.45153244 43.78006088 53.7919809 42.81769012 54.14274597 41.82615662 C54.86041491 39.80243256 55.58077961 37.77966266 56.30371094 35.7578125 C57.39861665 32.69125053 58.48094408 29.62045002 59.56225586 26.54907227 C60.26527514 24.57158952 60.96902732 22.59436715 61.67358398 20.61743164 C61.99148392 19.71295792 62.30938385 18.80848419 62.63691711 17.87660217 C64.85609593 11.71010167 67.54221629 5.91302231 70.59155273 0.11352539 C74.73738028 0.08583669 78.88316181 0.06677213 83.02905273 0.05102539 C84.21305664 0.04264648 85.39706055 0.03426758 86.61694336 0.02563477 C87.74165039 0.02241211 88.86635742 0.01918945 90.02514648 0.01586914 C91.06727295 0.01063232 92.10939941 0.00539551 93.18310547 0 C95.59155273 0.11352539 95.59155273 0.11352539 96.59155273 1.11352539 C96.69208781 3.9385587 96.7277099 6.73917824 96.72094727 9.56469727 C96.72357574 10.89386925 96.72357574 10.89386925 96.72625732 12.24989319 C96.73067713 15.19404021 96.7277374 18.1381277 96.72436523 21.08227539 C96.72503824 23.11869315 96.72600823 25.15511084 96.7272644 27.19152832 C96.72874155 31.46550255 96.72658628 35.73945592 96.72192383 40.01342773 C96.71622653 45.50511078 96.71950545 50.99674496 96.72549629 56.48842621 C96.72910145 60.69529593 96.72796353 64.90215398 96.7253685 69.10902405 C96.7246991 71.13452663 96.72552809 73.16003025 96.72784805 75.18553162 C96.73037384 78.01116769 96.72653504 80.83672346 96.72094727 83.66235352 C96.7229715 84.5081044 96.72499573 85.35385529 96.7270813 86.22523499 C96.70581514 91.99926299 96.70581514 91.99926299 95.59155273 93.11352539 C90.31155273 93.11352539 85.03155273 93.11352539 79.59155273 93.11352539 C79.59155273 69.35352539 79.59155273 45.59352539 79.59155273 21.11352539 C78.93155273 21.11352539 78.27155273 21.11352539 77.59155273 21.11352539 C77.48456055 21.7593457 77.37756836 22.40516602 77.26733398 23.07055664 C76.37682143 27.08043687 75.09046682 30.91151791 73.77905273 34.80102539 C73.50915527 35.60757568 73.23925781 36.41412598 72.96118164 37.24511719 C71.32524582 42.08610199 69.54948324 46.83057705 67.58154297 51.54711914 C66.50118542 54.34778957 65.62961727 57.16677023 64.77124023 60.04321289 C62.63400227 67.06704834 60.26577601 73.996853 57.84155273 80.92602539 C57.22473633 82.69816406 57.22473633 82.69816406 56.59545898 84.50610352 C55.59623476 87.37596845 54.59419551 90.24485301 53.59155273 93.11352539 C48.97155273 93.11352539 44.35155273 93.11352539 39.59155273 93.11352539 C33.98329993 77.84538832 28.38497616 62.5736734 22.82116699 47.28927612 C22.29580944 45.84624304 21.77017754 44.40330981 21.2442627 42.96047974 C20.5037197 40.92846535 19.76427545 38.89605449 19.02514648 36.86352539 C18.60289795 35.70336914 18.18064941 34.54321289 17.74560547 33.34790039 C16.65184006 30.28248804 15.61601844 27.202641 14.59155273 24.11352539 C14.58124527 24.96321396 14.57093781 25.81290253 14.56031799 26.68833923 C14.46251585 34.6789648 14.36002656 42.66951332 14.25221348 50.66001034 C14.19694691 54.76842956 14.14352109 58.87685586 14.09423828 62.98535156 C14.04664961 66.94705665 13.99430907 70.90867257 13.93861198 74.87027168 C13.91816343 76.38498286 13.89945456 77.89971851 13.88247871 79.41447258 C13.85848974 81.52900965 13.82842823 83.64337674 13.796875 85.7578125 C13.78133072 86.96360458 13.76578644 88.16939667 13.74977112 89.41172791 C13.59155273 92.11352539 13.59155273 92.11352539 12.59155273 93.11352539 C10.08019169 93.21327571 7.60251859 93.25234722 5.09155273 93.23852539 C4.38901367 93.24239258 3.68647461 93.24625977 2.96264648 93.25024414 C-2.28183349 93.24013917 -2.28183349 93.24013917 -3.40844727 92.11352539 C-3.50898234 89.28849209 -3.54460443 86.48787254 -3.5378418 83.66235352 C-3.53959412 82.77623886 -3.54134644 81.89012421 -3.54315186 80.97715759 C-3.54757166 78.03301057 -3.54463193 75.08892308 -3.54125977 72.14477539 C-3.54193277 70.10835763 -3.54290276 68.07193995 -3.54415894 66.03552246 C-3.54563608 61.76154823 -3.54348081 57.48759486 -3.53881836 53.21362305 C-3.53312107 47.72194 -3.53639998 42.23030582 -3.54239082 36.73862457 C-3.54599598 32.53175485 -3.54485806 28.3248968 -3.54226303 24.11802673 C-3.54159364 22.09252415 -3.54242262 20.06702053 -3.54474258 18.04151917 C-3.54726837 15.21588309 -3.54342957 12.39032732 -3.5378418 9.56469727 C-3.53986603 8.71894638 -3.54189026 7.8731955 -3.54397583 7.0018158 C-3.51879853 0.16586329 -3.51879853 0.16586329 0 0 Z " fill="#5764FC" transform="translate(332.408447265625,124.886474609375)"/>
<path d="M0 0 C0.69416016 -0.01224609 1.38832031 -0.02449219 2.10351562 -0.03710938 C3.92470901 -0.04239842 5.7453692 0.06580793 7.5625 0.1875 C10.23730276 2.86230276 9.80359691 4.88124292 9.82244873 8.51751709 C9.81682922 9.40642639 9.81120972 10.29533569 9.80541992 11.21118164 C9.80731827 12.14621017 9.80921661 13.08123871 9.81117249 14.04460144 C9.81488745 17.14570409 9.80416655 20.2465743 9.79296875 23.34765625 C9.79177734 25.49474561 9.79132371 27.6418355 9.7915802 29.78892517 C9.79001413 34.29234064 9.78171449 38.79567676 9.76831055 43.29907227 C9.75131034 49.08555519 9.74749642 54.87195088 9.74825573 60.65845585 C9.74798445 65.09265483 9.74251017 69.52683455 9.73525429 73.96102715 C9.73206153 76.09538057 9.73009881 78.22973619 9.72936058 80.36409187 C9.727204 83.34050375 9.71847491 86.31682115 9.70776367 89.29321289 C9.70821686 90.18414642 9.70867004 91.07507996 9.70913696 91.99301147 C9.676974 98.073026 9.676974 98.073026 8.5625 99.1875 C6.23089945 99.28659302 3.89620058 99.31720504 1.5625 99.3125 C0.28375 99.31507813 -0.995 99.31765625 -2.3125 99.3203125 C-5.4375 99.1875 -5.4375 99.1875 -6.4375 98.1875 C-6.89209858 95.53286879 -7.13993238 92.86560862 -7.4375 90.1875 C-8.13875 91.115625 -8.84 92.04375 -9.5625 93 C-12.3372302 96.67243703 -15.86022894 98.78278644 -20.44775391 99.50317383 C-22.70416528 99.66296262 -24.92553987 99.70646623 -27.1875 99.6875 C-28.38403198 99.67783203 -28.38403198 99.67783203 -29.60473633 99.66796875 C-38.35015603 99.39742763 -44.24489708 96.79767077 -50.3125 90.4375 C-57.30869632 81.70875507 -59.23555497 72.16814519 -58.4375 61.1875 C-56.85014498 52.16109985 -52.66734068 44.45922409 -45.4375 38.75 C-38.45006608 34.00852698 -31.75887613 33.31981882 -23.4375 34.1875 C-18.08282533 35.67247125 -13.83262182 37.8250017 -9.4375 41.1875 C-9.39991577 39.3777771 -9.39991577 39.3777771 -9.36157227 37.53149414 C-9.26767477 33.07174339 -9.16741167 28.61215487 -9.06518555 24.15258789 C-9.02176959 22.21935815 -8.98009958 20.28608841 -8.94018555 18.3527832 C-8.88264369 15.58011798 -8.8189038 12.80765543 -8.75390625 10.03515625 C-8.73719376 9.16536636 -8.72048126 8.29557648 -8.70326233 7.39942932 C-8.50810109 -0.43584351 -7.28035207 0.00672239 0 0 Z " fill="#5A67FC" transform="translate(578.4375,118.8125)"/>
<path d="M0 0 C8.08707488 3.21534302 15.8277388 9.45625886 19.76953125 17.33984375 C20.10984375 16.69917969 20.45015625 16.05851562 20.80078125 15.3984375 C24.5188292 8.76330406 28.79892048 2.82514914 35.76953125 -0.66015625 C43.9339888 -1.45742714 51.32745833 -1.9070554 57.9609375 3.53515625 C58.55777344 4.13070312 59.15460938 4.72625 59.76953125 5.33984375 C60.31480469 5.87351563 60.86007813 6.4071875 61.421875 6.95703125 C66.0647404 12.74453659 65.81634245 20.33381926 65.0859375 27.38720703 C62.69723214 42.12861554 48.11187002 54.9550503 36.76953125 63.33984375 C35.94388672 63.96777832 35.94388672 63.96777832 35.1015625 64.60839844 C33.37948797 65.91349874 31.64108031 67.19273336 29.89453125 68.46484375 C28.84523437 69.23054688 27.7959375 69.99625 26.71484375 70.78515625 C23.76953125 72.33984375 23.76953125 72.33984375 21.19140625 72.33984375 C18.16172012 71.08887657 16.27923534 69.46240831 13.89453125 67.21484375 C13.01925781 66.39113281 12.14398438 65.56742187 11.2421875 64.71875 C10.42621094 63.93371094 9.61023438 63.14867187 8.76953125 62.33984375 C7.87041016 61.51806641 7.87041016 61.51806641 6.953125 60.6796875 C-5.06345337 49.35804378 -19.83586709 31.20988986 -20.66796875 14.21484375 C-20.50312115 9.54177265 -19.42901096 6.87507461 -16.23046875 3.33984375 C-11.07278108 -1.11452287 -6.39266755 -1.89205046 0 0 Z " fill="#5663FE" transform="translate(147.23046875,150.66015625)"/>
<path d="M0 0 C1.4375 1.9375 1.4375 1.9375 1.29296875 3.7890625 C0.14230882 6.67884771 -1.51431613 8.16869772 -3.8125 10.25 C-4.58078125 10.96800781 -5.3490625 11.68601563 -6.140625 12.42578125 C-8.5625 13.9375 -8.5625 13.9375 -11.1484375 13.828125 C-13.55334322 12.94087823 -14.97633141 11.99089243 -16.9375 10.375 C-22.92967146 6.48235831 -29.70814494 7.04628893 -36.5625 7.9375 C-44.60569379 10.35899203 -50.8721247 15.34883958 -55.1015625 22.5625 C-59.88518017 32.61076953 -60.14720627 42.33132584 -56.5 52.8125 C-53.27000763 60.26144308 -48.73125517 66.97330428 -41.05859375 70.30859375 C-33.58968331 72.1904319 -25.27009386 72.37477701 -18.375 68.6875 C-15.98072124 67.12114941 -14.29581222 65.65599623 -12.3125 63.5625 C-11.735 63.02625 -11.1575 62.49 -10.5625 61.9375 C-6.07428957 62.22234354 -3.62493332 64.16505601 -0.25 67 C1.07451172 68.10021484 1.07451172 68.10021484 2.42578125 69.22265625 C3.08964844 69.78855469 3.75351562 70.35445313 4.4375 70.9375 C3.5738371 76.01015301 0.44821976 78.04260305 -3.5625 80.9375 C-14.96674819 88.25481805 -29.81496779 89.93670417 -42.93359375 87.24609375 C-54.76022492 83.6453742 -65.22309603 76.08461388 -71.4296875 65.25390625 C-77.95183568 51.91723774 -78.93355787 35.99271556 -74.9375 21.6875 C-70.78741064 10.44162849 -63.36573204 1.23429474 -52.75 -4.4375 C-35.70704956 -12.2772572 -14.7809871 -11.89689206 0 0 Z " fill="#5865FD" transform="translate(715.5625,132.0625)"/>
<path d="M0 0 C5.73298834 4.4264003 9.64033469 11.66129285 11.07421875 18.71484375 C11.58035817 23.43604592 11.63832928 28.20160925 11.3125 32.9375 C10.3125 33.9375 10.3125 33.9375 8.44590759 34.05775452 C7.63094315 34.05553391 6.8159787 34.05331329 5.97631836 34.05102539 C4.59499977 34.05091209 4.59499977 34.05091209 3.18577576 34.05079651 C2.18474319 34.04563522 1.18371063 34.04047394 0.15234375 34.03515625 C-0.86725937 34.0337413 -1.88686249 34.03232635 -2.93736267 34.03086853 C-6.20827107 34.02525097 -9.47911213 34.0126955 -12.75 34 C-14.96158756 33.99498726 -17.17317618 33.99042396 -19.38476562 33.98632812 C-24.81903357 33.97527584 -30.25326197 33.95852063 -35.6875 33.9375 C-35.07930802 35.22179621 -34.4631721 36.50233229 -33.84375 37.78125 C-33.50150391 38.49474609 -33.15925781 39.20824219 -32.80664062 39.94335938 C-30.93133482 43.28487286 -29.20512981 44.42994437 -25.6875 45.9375 C-18.92493137 46.85187548 -13.28353256 46.50612518 -7.40625 42.91015625 C-5.37853292 41.76265272 -4.03214723 41.08068456 -1.6875 40.9375 C0.453125 42.58984375 0.453125 42.58984375 2.5625 44.875 C3.26890625 45.62652344 3.9753125 46.37804687 4.703125 47.15234375 C5.49976563 48.03599609 5.49976563 48.03599609 6.3125 48.9375 C4.25193906 53.8640188 0.8264856 55.43898399 -3.6875 57.9375 C-4.698125 58.535625 -5.70875 59.13375 -6.75 59.75 C-14.70748695 62.94394545 -25.55463357 61.80785514 -33.48046875 58.96875 C-42.48083842 54.76326753 -48.06361704 47.71101281 -51.5625 38.5 C-54.00124839 30.13857695 -53.1647837 21.87853087 -49.6875 13.9375 C-44.97028736 5.5014266 -39.17909392 -0.72881859 -29.9375 -3.9375 C-19.46717886 -6.63951836 -9.24586177 -5.69286685 0 0 Z " fill="#5866FC" transform="translate(497.6875,158.0625)"/>
<path d="M0 0 C6.54984552 4.96096502 9.84757542 10.10777654 12 18 C12 23.28 12 28.56 12 34 C-3.51 34 -19.02 34 -35 34 C-31.58202085 41.47606197 -31.58202085 41.47606197 -26 46 C-20.21920939 47.9269302 -15.30719332 47.15057073 -9.78515625 44.9375 C-7.76810833 43.99105396 -7.76810833 43.99105396 -5.75 41.75 C-5.1725 41.1725 -4.595 40.595 -4 40 C-0.35015372 40.33250718 1.6143555 42.14649254 4.25 44.5625 C5.30960938 45.52349609 5.30960938 45.52349609 6.390625 46.50390625 C7.18726563 47.24447266 7.18726563 47.24447266 8 48 C7.63233859 50.61888048 7.24787107 51.76906773 5.28515625 53.59765625 C-5.12496265 60.45845517 -15.35785815 62.63195631 -27.76953125 60.53125 C-37.24496469 58.08597685 -43.97398689 52.30732739 -49 44 C-53.05325976 36.20096916 -52.34257355 24.59041691 -49.9375 16.3671875 C-46.13735204 8.29187308 -40.67918181 1.46876802 -32.5625 -2.5 C-22.56771475 -5.96032751 -9.01762993 -5.81464662 0 0 Z " fill="#5867FC" transform="translate(899,158)"/>
<path d="M0 0 C5.62292318 3.69984165 8.75375987 8.52638049 10.8515625 14.8828125 C11.7222947 20.60670447 11.99925396 26.15826488 11.984375 31.94140625 C11.98533173 32.7711647 11.98628845 33.60092316 11.98727417 34.45582581 C11.9879498 36.19280067 11.98613894 37.92977814 11.98193359 39.66674805 C11.97652845 42.33713328 11.98192378 45.00735397 11.98828125 47.67773438 C11.98762129 49.36979204 11.98634185 51.0618496 11.984375 52.75390625 C11.98639923 53.55485214 11.98842346 54.35579803 11.99050903 55.18101501 C11.96654558 60.76782942 11.96654558 60.76782942 10.8515625 61.8828125 C8.49842695 61.95552991 6.14322582 61.96652118 3.7890625 61.9453125 C1.85353516 61.93177734 1.85353516 61.93177734 -0.12109375 61.91796875 C-1.12011719 61.90636719 -2.11914062 61.89476562 -3.1484375 61.8828125 C-3.8084375 59.5728125 -4.4684375 57.2628125 -5.1484375 54.8828125 C-5.8703125 55.6459375 -6.5921875 56.4090625 -7.3359375 57.1953125 C-12.76518175 62.383257 -16.65292582 63.44134864 -23.9609375 63.3828125 C-25.1687085 63.37531982 -25.1687085 63.37531982 -26.40087891 63.36767578 C-31.58430968 63.21475666 -35.57324258 62.72243349 -39.73828125 59.3828125 C-45.17929782 53.59513836 -46.59271222 48.46267294 -46.48046875 40.73828125 C-45.9494219 36.17127835 -44.33934847 33.16318826 -41.1484375 29.8828125 C-30.81908344 21.91212984 -17.57703506 22.43070891 -5.1484375 21.8828125 C-5.45879982 16.9501024 -5.45879982 16.9501024 -8.0234375 13.0078125 C-13.19968142 10.26744807 -18.42073726 10.27164886 -24.1484375 10.8828125 C-26.3807136 11.77572294 -28.35635887 12.85003344 -30.44140625 14.0390625 C-32.1484375 14.8828125 -32.1484375 14.8828125 -34.8359375 14.9453125 C-37.95824894 13.51073697 -39.87192986 11.41949244 -42.1484375 8.8828125 C-40.01638356 3.45576609 -35.80786752 1.00970597 -30.7109375 -1.3671875 C-21.42299235 -4.8882891 -8.92312095 -4.64002289 0 0 Z " fill="#5A67FB" transform="translate(774.1484375,156.1171875)"/>
<path d="M0 0 C1.60294922 0.04060547 1.60294922 0.04060547 3.23828125 0.08203125 C4.04652344 0.11683594 4.85476563 0.15164062 5.6875 0.1875 C5.71435412 2.49993792 5.73382841 4.8124627 5.75 7.125 C5.76160156 8.41277344 5.77320313 9.70054687 5.78515625 11.02734375 C5.6875 14.1875 5.6875 14.1875 4.6875 15.1875 C1.45410097 15.39301265 -1.77751564 15.50705368 -5.015625 15.61328125 C-8.9638243 16.30094156 -10.53343847 17.32698322 -13.3125 20.1875 C-16.39653469 25.17277995 -16.76521935 29.14972158 -16.7890625 34.83203125 C-16.81243179 36.04761971 -16.81243179 36.04761971 -16.83627319 37.2877655 C-16.88355074 39.85850161 -16.9114935 42.42896835 -16.9375 45 C-16.97397742 47.58869716 -17.01451444 50.17724101 -17.06015015 52.76579285 C-17.08740963 54.37272636 -17.10874665 55.97977304 -17.12368774 57.58686829 C-17.20179166 63.07679166 -17.20179166 63.07679166 -18.3125 64.1875 C-20.64410055 64.28659302 -22.97879942 64.31720504 -25.3125 64.3125 C-26.59125 64.31507813 -27.87 64.31765625 -29.1875 64.3203125 C-32.3125 64.1875 -32.3125 64.1875 -33.3125 63.1875 C-33.40646057 61.25443502 -33.42993517 59.31791162 -33.42602539 57.38256836 C-33.42594986 56.14135727 -33.42587433 54.90014618 -33.42579651 53.62132263 C-33.42068911 52.2566626 -33.4154731 50.89200298 -33.41015625 49.52734375 C-33.408292 48.13871817 -33.40686813 46.75009193 -33.40586853 45.36146545 C-33.40204387 41.70028885 -33.39221403 38.0391517 -33.38116455 34.37799072 C-33.37094932 30.64457737 -33.36637067 26.91115766 -33.36132812 23.17773438 C-33.35059171 15.84763823 -33.33351591 8.51757464 -33.3125 1.1875 C-30.83326199 1.16064905 -28.3543116 1.14073453 -25.875 1.125 C-25.16794922 1.11662109 -24.46089844 1.10824219 -23.73242188 1.09960938 C-21.92556441 1.09096412 -20.11862397 1.13529989 -18.3125 1.1875 C-16.34427114 3.15572886 -16.65001619 6.53558709 -16.3125 9.1875 C-15.590625 8.259375 -14.86875 7.33125 -14.125 6.375 C-10.2098738 1.34126631 -6.32083886 -0.2083793 0 0 Z " fill="#5965FB" transform="translate(836.3125,153.8125)"/>
<path d="M0 0 C0.70253906 0.00386719 1.40507813 0.00773438 2.12890625 0.01171875 C2.83144531 0.00785156 3.53398438 0.00398437 4.2578125 0 C9.50229247 0.01010497 9.50229247 0.01010497 10.62890625 1.13671875 C10.72806205 3.02841176 10.75689937 4.92382583 10.75830078 6.81811523 C10.76145294 8.03285019 10.7646051 9.24758514 10.76785278 10.49913025 C10.7660628 11.83535803 10.7640118 13.17158549 10.76171875 14.5078125 C10.76239192 15.86922727 10.76336205 17.23064192 10.76461792 18.59205627 C10.76609479 21.44948467 10.76394101 24.30688186 10.75927734 27.16430664 C10.75358544 30.83090676 10.75685568 34.49743361 10.76284981 38.16403103 C10.76646031 40.97695978 10.76531448 43.7898711 10.76272202 46.60280037 C10.76205382 47.95482454 10.76287743 49.30685027 10.76520157 50.6588726 C10.76773545 52.54789068 10.76318996 54.43691428 10.75830078 56.32592773 C10.75750519 57.40212875 10.75670959 58.47832977 10.75588989 59.58714294 C10.62890625 62.13671875 10.62890625 62.13671875 9.62890625 64.13671875 C4.34890625 64.13671875 -0.93109375 64.13671875 -6.37109375 64.13671875 C-6.393648 55.93980905 -6.41201071 47.7429233 -6.42290592 39.54599094 C-6.42813395 35.74020298 -6.43523013 31.93443727 -6.4465332 28.12866211 C-6.45736495 24.45879331 -6.46337119 20.78894597 -6.46597099 17.11906242 C-6.46782472 15.71596883 -6.47144435 14.31287646 -6.47682381 12.90979195 C-6.48403794 10.95102195 -6.48450184 8.99223055 -6.48461914 7.03344727 C-6.48683975 5.91647964 -6.48906036 4.79951202 -6.49134827 3.6486969 C-6.27181187 -0.93716513 -4.05900549 0.00782082 0 0 Z " fill="#5966FB" transform="translate(612.37109375,153.86328125)"/>
<path d="M0 0 C4.52563411 1.7709003 8.21811281 3.84527467 10.83984375 8.02734375 C12.99875451 14.23290849 12.79489275 21.58482802 10.296875 27.61328125 C7.38214336 32.45505111 3.13761849 35.91391986 -2.3515625 37.3515625 C-7.12941658 37.80659622 -9.33183775 37.88103497 -13.6015625 35.6640625 C-17.93199194 32.02256502 -21.89341812 27.85011962 -22.65234375 22.0546875 C-22.68365258 15.50070582 -22.34131057 9.52816983 -17.6640625 4.55859375 C-12.08414127 -0.33546216 -7.39688943 -2.03967383 0 0 Z " fill="#FBFBFD" transform="translate(559.3515625,167.6484375)"/>
<path d="M0 0 C0.75410156 0.00322266 1.50820313 0.00644531 2.28515625 0.00976562 C3.06246094 0.01814453 3.83976563 0.02652344 4.640625 0.03515625 C5.43339844 0.03966797 6.22617187 0.04417969 7.04296875 0.04882812 C8.99222008 0.0605706 10.94143238 0.07850479 12.890625 0.09765625 C13.39132256 3.55386022 13.55590304 6.65621798 12.890625 10.09765625 C9.5325843 14.48111264 5.40546399 17.62901105 -0.16015625 18.37109375 C-4.25020914 18.55475761 -7.27999828 18.49830482 -10.671875 16.03515625 C-13.109375 13.09765625 -13.109375 13.09765625 -13.796875 9.59765625 C-12.94166297 5.24384955 -11.58679392 3.78475269 -8.109375 1.09765625 C-5.35971267 0.19781137 -2.88164707 -0.02183066 0 0 Z " fill="#F9FAFD" transform="translate(757.109375,189.90234375)"/>
<path d="M0 0 C3.66326612 1.93902523 7.11539593 4.23079187 9 8 C9 9.98 9 11.96 9 14 C-0.9 14 -10.8 14 -21 14 C-17.58333333 3.75 -17.58333333 3.75 -13 1 C-8.61078172 -0.46307276 -4.57778176 -0.73595606 0 0 Z " fill="#F8F9FC" transform="translate(885,166)"/>
<path d="M0 0 C4.37681657 2.23022501 6.34751795 4.74593304 7.96484375 9.3125 C7.96484375 10.6325 7.96484375 11.9525 7.96484375 13.3125 C-1.93515625 13.3125 -11.83515625 13.3125 -22.03515625 13.3125 C-20.90116932 7.64256536 -20.90116932 7.64256536 -18.22265625 4.625 C-17.72121094 4.04363281 -17.21976562 3.46226562 -16.703125 2.86328125 C-12.0114263 -1.49878991 -5.97132364 -2.01718419 0 0 Z " fill="#F9F9FC" transform="translate(484.03515625,166.6875)"/>
<path d="M0 0 C2.87029869 1.79393668 4.49131638 2.98263276 6 6 C6.59873168 11.26883876 5.25400021 13.8846468 2 18 C-1.47682091 19.73841045 -5.19883325 19.44642373 -9 19 C-12 17.5625 -12 17.5625 -14 15 C-14.9648449 11.93990019 -15.30775495 9.19723195 -15 6 C-11.20660448 -0.27872362 -6.92598245 -0.89714799 0 0 Z " fill="#5966FB" transform="translate(619,124)"/>
<path d="M0 0 C0.99 0 1.98 0 3 0 C2.50168276 3.68754757 1.89932357 5.60490662 -1 8 C-0.67 5.36 -0.34 2.72 0 0 Z " fill="#6174EF" transform="translate(393,187)"/>
</svg>
